<?xml version="1.0" encoding="UTF-8" standalone="no"?>
<!-- Created with Inkscape (http://www.inkscape.org/) -->

<svg
   xmlns:dc="http://purl.org/dc/elements/1.1/"
   xmlns:cc="http://creativecommons.org/ns#"
   xmlns:rdf="http://www.w3.org/1999/02/22-rdf-syntax-ns#"
   xmlns:svg="http://www.w3.org/2000/svg"
   xmlns="http://www.w3.org/2000/svg"
   xmlns:sodipodi="http://sodipodi.sourceforge.net/DTD/sodipodi-0.dtd"
   xmlns:inkscape="http://www.inkscape.org/namespaces/inkscape"
   width="200"
   height="200"
   id="svg2"
   version="1.1"
   inkscape:version="0.48.4 r9939">
  <sodipodi:namedview
     id="base"
     pagecolor="#ffffff"
     bordercolor="#666666"
     borderopacity="1.0"
     inkscape:pageopacity="0.0"
     inkscape:pageshadow="2"
     inkscape:zoom="7.919596"
     inkscape:cx="88.864291"
     inkscape:cy="73.253691"
     inkscape:document-units="px"
     inkscape:current-layer="layer2"
     showgrid="true"
     inkscape:window-width="1919"
     inkscape:window-height="2160"
     inkscape:window-x="5760"
     inkscape:window-y="0"
     inkscape:window-maximized="0">
    <inkscape:grid
       snapvisiblegridlinesonly="true"
       enabled="true"
       visible="true"
       empspacing="5"
       id="grid3106"
       type="xygrid" />
  </sodipodi:namedview>
  <defs
     id="defs4" />
  <metadata
     id="metadata7">
    <rdf:RDF>
      <cc:Work
         rdf:about="">
        <dc:format>image/svg+xml</dc:format>
        <dc:type
           rdf:resource="http://purl.org/dc/dcmitype/StillImage" />
        <dc:title />
      </cc:Work>
    </rdf:RDF>
  </metadata>
  <g
     transform="translate(0,-852.36218)"
     id="layer1"
     inkscape:groupmode="layer"
     inkscape:label="Layer 1" />
  <g
     transform="translate(0,-852.36218)"
     inkscape:label="Layer"
     id="layer2"
     inkscape:groupmode="layer">
    <flowRoot
       style="font-size:40px;font-style:normal;font-variant:normal;font-weight:normal;font-stretch:normal;line-height:125%;letter-spacing:0px;word-spacing:0px;fill:#000000;fill-opacity:1;stroke:none;font-family:Sans;-inkscape-font-specification:Sans"
       id="flowRoot3770"
       xml:space="preserve"><flowRegion
         id="flowRegion3772"><rect
           style="font-style:normal;font-variant:normal;font-weight:normal;font-stretch:normal;font-family:Sans;-inkscape-font-specification:Sans"
           y="331.61835"
           x="197.73737"
           height="62.124382"
           width="68.690376"
           id="rect3774" /></flowRegion><flowPara
         style="font-style:normal;font-variant:normal;font-weight:normal;font-stretch:normal;font-family:Sans;-inkscape-font-specification:Sans"
         id="flowPara3776" /></flowRoot>    <rect
       ry="5"
       rx="5"
       transform="translate(0,852.36218)"
       y="35"
       x="30"
       height="60"
       width="60"
       id="rect3108"
       style="fill:#009688;fill-opacity:1;stroke:none" />
    <g
       id="text3110"
       style="font-size:40px;font-style:normal;font-weight:normal;line-height:125%;letter-spacing:0px;word-spacing:0px;fill:#000000;fill-opacity:1;stroke:none;font-family:Sans">
      <path
         id="path3899"
         style="font-variant:normal;font-stretch:normal;fill:none;stroke:#ffffff;stroke-width:2;stroke-miterlimit:4;stroke-opacity:1;font-family:Roboto;-inkscape-font-specification:Roboto"
         d="m 57.433594,926.28406 12.949218,0 0,5.07812 -21.074218,0 0,-2.96875 12.714843,-20.39062 -12.773437,0 0,-5.07813 20.957031,0 0,2.85157 -12.773437,20.50781" />
      <path
         d="m 57.433594,926.28406 12.949218,0 0,5.07812 -21.074218,0 0,-2.96875 12.714843,-20.39062 -12.773437,0 0,-5.07813 20.957031,0 0,2.85157 -12.773437,20.50781"
         style="font-variant:normal;font-stretch:normal;fill:none;stroke:#ffffff;stroke-width:2;stroke-miterlimit:4;stroke-opacity:1;font-family:Roboto;-inkscape-font-specification:Roboto"
         id="path3901" />
    </g>
    <g
       style="font-size:40px;font-style:normal;font-weight:normal;line-height:125%;letter-spacing:0px;word-spacing:0px;fill:#000000;fill-opacity:1;stroke:none;font-family:Sans"
       id="g5763">
      <path
         d="m 57.433594,926.28406 12.949218,0 0,5.07812 -21.074218,0 0,-2.96875 12.714843,-20.39062 -12.773437,0 0,-5.07813 20.957031,0 0,2.85157 -12.773437,20.50781"
         style="font-variant:normal;font-stretch:normal;fill:none;stroke:#ffffff;stroke-width:2;stroke-miterlimit:4;stroke-opacity:1;font-family:Roboto;-inkscape-font-specification:Roboto"
         id="path5765" />
      <path
         id="path5767"
         style="font-variant:normal;font-stretch:normal;fill:none;stroke:#ffffff;stroke-width:2;stroke-miterlimit:4;stroke-opacity:1;font-family:Roboto;-inkscape-font-specification:Roboto"
         d="m 57.433594,926.28406 12.949218,0 0,5.07812 -21.074218,0 0,-2.96875 12.714843,-20.39062 -12.773437,0 0,-5.07813 20.957031,0 0,2.85157 -12.773437,20.50781" />
    </g>
    <g
       transform="translate(30,30)"
       id="g5769"
       style="font-size:40px;font-style:normal;font-weight:normal;line-height:125%;letter-spacing:0px;word-spacing:0px;fill:#000000;fill-opacity:1;stroke:none;font-family:Sans">
      <path
         inkscape:connector-curvature="0"
         id="path5771"
         style="font-variant:normal;font-stretch:normal;fill:none;stroke:#ffffff;stroke-width:2;stroke-miterlimit:4;stroke-opacity:1;font-family:Roboto;-inkscape-font-specification:Roboto"
         d="m 57.433594,926.28406 12.949218,0 0,5.07812 -21.074218,0 0,-2.96875 12.714843,-20.39062 -12.773437,0 0,-5.07813 20.957031,0 0,2.85157 -12.773437,20.50781" />
      <path
         inkscape:connector-curvature="0"
         d="m 57.433594,926.28406 12.949218,0 0,5.07812 -21.074218,0 0,-2.96875 12.714843,-20.39062 -12.773437,0 0,-5.07813 20.957031,0 0,2.85157 -12.773437,20.50781"
         style="font-variant:normal;font-stretch:normal;fill:none;stroke:#ffffff;stroke-width:2;stroke-miterlimit:4;stroke-opacity:1;font-family:Roboto;-inkscape-font-specification:Roboto"
         id="path5773" />
    </g>
  </g>
</svg>
